<?xml version="1.0" encoding="iso-8859-1"?>
<!-- Generator: Adobe Illustrator 18.0.0, SVG Export Plug-In . SVG Version: 6.00 Build 0)  -->
<!DOCTYPE svg PUBLIC "-//W3C//DTD SVG 1.1//EN" "http://www.w3.org/Graphics/SVG/1.1/DTD/svg11.dtd">
<svg version="1.1" id="Capa_1" xmlns="http://www.w3.org/2000/svg" xmlns:xlink="http://www.w3.org/1999/xlink" x="0px" y="0px"
	 viewBox="0 0 398.162 398.162" style="enable-background:new 0 0 398.162 398.162;" xml:space="preserve">
<g>
	<path style="fill:#211915;" d="M397.674,211.845l-14.081-43.404l7.438-49.829c0.43-2.878-0.416-5.801-2.315-8.005
		s-4.665-3.472-7.575-3.472h-19.77c-3.345,0-6.468,1.672-8.321,4.455l-25.804,38.724h-94.551c-0.135-0.508-0.3-1.012-0.52-1.507
		l-8.164-18.328c-1.606-3.607-5.186-5.931-9.135-5.931h-17.492v-3.627h121.161c5.522,0,10-4.477,10-10s-4.478-10-10-10H197.384
		v-0.67c0-5.523-4.477-10-10-10s-10,4.477-10,10v0.67H56.223c-5.523,0-10,4.477-10,10s4.477,10,10,10h121.161v3.627h-17.492
		c-3.949,0-7.528,2.324-9.135,5.931l-8.165,18.328c-0.221,0.495-0.385,1-0.52,1.508h-21.137c-25.85,0-50.766,7.752-72.052,22.418
		c-21.287,14.667-37.405,35.187-46.613,59.342C0.763,236.024,0,240.17,0,244.396c0,19.076,15.52,34.596,34.596,34.596h9.745v8.92
		h-14.26c-5.523,0-10,4.477-10,10s4.477,10,10,10h127.5c5.523,0,10-4.477,10-10s-4.477-10-10-10h-14.26v-9.258
		c21.433-1.772,41.352-10.949,56.732-26.329l35.754-35.754l97.412-15.241l28.1,21.538c1.745,1.338,3.884,2.063,6.083,2.063h20.76
		c3.2,0,6.207-1.532,8.089-4.12C398.133,218.222,398.662,214.889,397.674,211.845z M166.385,144.548h41.998l2.569,5.766h-47.136
		L166.385,144.548z M80.081,178.538v16.045c0,5.882-4.785,10.667-10.667,10.667H41.969
		C52.571,193.697,65.616,184.567,80.081,178.538z M64.341,287.912v-8.92h58.98v8.92H64.341z M185.911,238.183
		c-13.419,13.419-31.261,20.81-50.239,20.81H34.596c-8.048,0-14.596-6.548-14.596-14.596c0-1.783,0.322-3.533,0.958-5.199
		c1.89-4.957,4.142-9.713,6.704-14.254c0.776,0.193,1.583,0.307,2.419,0.307h39.333c16.91,0,30.667-13.757,30.667-30.667v-22.177
		c6.794-1.369,13.772-2.092,20.854-2.092h100.106v32.739L185.911,238.183z M370.794,204.931l-28.807-22.079
		c-2.17-1.663-4.923-2.366-7.629-1.943l-93.317,14.6v-25.195H332.6c3.345,0,6.468-1.672,8.322-4.455l25.803-38.724h2.813
		l-6.072,40.678c-0.229,1.53-0.099,3.091,0.379,4.563l10.562,32.555H370.794z"/>
</g>
<g>
</g>
<g>
</g>
<g>
</g>
<g>
</g>
<g>
</g>
<g>
</g>
<g>
</g>
<g>
</g>
<g>
</g>
<g>
</g>
<g>
</g>
<g>
</g>
<g>
</g>
<g>
</g>
<g>
</g>
</svg>
