<?xml version="1.0" encoding="UTF-8"?>
<svg width="20px" height="20px" viewBox="0 0 20 20" version="1.1" xmlns="http://www.w3.org/2000/svg" xmlns:xlink="http://www.w3.org/1999/xlink">
    <!-- Generator: sketchtool 49.3 (51167) - http://www.bohemiancoding.com/sketch -->
    <title>CCE64726-0DDA-46B6-8A7F-BF30941E6F94</title>
    <desc>Created with sketchtool.</desc>
    <defs></defs>
    <g id="Customer-Flow" stroke="none" stroke-width="1" fill="none" fill-rule="evenodd">
        <g id="03-Claim" transform="translate(-660.000000, -310.000000)" fill="#666666" fill-rule="nonzero">
            <g id="Date" transform="translate(660.000000, 310.000000)">
                <path d="M5.4,3.8 L5.4,2 C5.4,1.44771525 4.95228475,1 4.4,1 C3.84771525,1 3.4,1.44771525 3.4,2 L3.4,3.8 L5.4,3.8 Z M6.4,2 L6.4,4.8 L2.4,4.8 L2.4,2 C2.4,0.8954305 3.2954305,6.46995335e-16 4.4,4.4408921e-16 C5.5045695,-2.02906125e-16 6.4,0.8954305 6.4,2 Z" id="Rectangle-6"></path>
                <path d="M16.6,3.8 L16.6,2 C16.6,1.44771525 16.1522847,1 15.6,1 C15.0477153,1 14.6,1.44771525 14.6,2 L14.6,3.8 L16.6,3.8 Z M15.6,0 C16.7045695,-2.02906125e-16 17.6,0.8954305 17.6,2 L17.6,4.8 L13.6,4.8 L13.6,2 C13.6,0.8954305 14.4954305,2.02906125e-16 15.6,0 Z" id="Rectangle-6"></path>
                <path d="M2.66914062,2.4 L2.66914062,3.4 L1.6,3.4 C1.26862915,3.4 1,3.66862915 1,4 L1,18.4 C1,18.7313708 1.26862915,19 1.6,19 L18.4,19 C18.7313708,19 19,18.7313708 19,18.4 L19,4 C19,3.66862915 18.7313708,3.4 18.4,3.4 L17.1628906,3.4 L17.1628906,2.4 L18.4,2.4 C19.2836556,2.4 20,3.1163444 20,4 L20,18.4 C20,19.2836556 19.2836556,20 18.4,20 L1.6,20 C0.7163444,20 0,19.2836556 0,18.4 L0,4 C0,3.1163444 0.7163444,2.4 1.6,2.4 L2.66914062,2.4 Z" id="Rectangle-16"></path>
                <polygon id="Path-26" points="0 7.7 0 6.7 19.5652063 6.7 19.5652063 7.7"></polygon>
                <polygon id="Path-26" points="6 3.30000305 6 2.30000305 14 2.30000305 14 3.30000305"></polygon>
                <path d="M10.4,11.7 C10.1238576,11.7 9.9,11.4761424 9.9,11.2 C9.9,10.9238576 10.1238576,10.7 10.4,10.7 L12.8,10.7 C13.0761424,10.7 13.3,10.9238576 13.3,11.2 C13.3,11.4761424 13.0761424,11.7 12.8,11.7 L10.4,11.7 Z" id="Path-26"></path>
                <path d="M14.4,11.7 C14.1238576,11.7 13.9,11.4761424 13.9,11.2 C13.9,10.9238576 14.1238576,10.7 14.4,10.7 L16.8,10.7 C17.0761424,10.7 17.3,10.9238576 17.3,11.2 C17.3,11.4761424 17.0761424,11.7 16.8,11.7 L14.4,11.7 Z" id="Path-26"></path>
                <path d="M10.4,14.1 C10.1238576,14.1 9.9,13.8761424 9.9,13.6 C9.9,13.3238576 10.1238576,13.1 10.4,13.1 L12.8,13.1 C13.0761424,13.1 13.3,13.3238576 13.3,13.6 C13.3,13.8761424 13.0761424,14.1 12.8,14.1 L10.4,14.1 Z" id="Path-26"></path>
                <path d="M14.4,14.1 C14.1238576,14.1 13.9,13.8761424 13.9,13.6 C13.9,13.3238576 14.1238576,13.1 14.4,13.1 L16.8,13.1 C17.0761424,13.1 17.3,13.3238576 17.3,13.6 C17.3,13.8761424 17.0761424,14.1 16.8,14.1 L14.4,14.1 Z" id="Path-26"></path>
                <path d="M10.4,16.5 C10.1238576,16.5 9.9,16.2761424 9.9,16 C9.9,15.7238576 10.1238576,15.5 10.4,15.5 L12.8,15.5 C13.0761424,15.5 13.3,15.7238576 13.3,16 C13.3,16.2761424 13.0761424,16.5 12.8,16.5 L10.4,16.5 Z" id="Path-26"></path>
                <path d="M6.4,14.1 C6.12385763,14.1 5.9,13.8761424 5.9,13.6 C5.9,13.3238576 6.12385763,13.1 6.4,13.1 L8.8,13.1 C9.07614237,13.1 9.3,13.3238576 9.3,13.6 C9.3,13.8761424 9.07614237,14.1 8.8,14.1 L6.4,14.1 Z" id="Path-26"></path>
                <path d="M6.4,16.5 C6.12385763,16.5 5.9,16.2761424 5.9,16 C5.9,15.7238576 6.12385763,15.5 6.4,15.5 L8.8,15.5 C9.07614237,15.5 9.3,15.7238576 9.3,16 C9.3,16.2761424 9.07614237,16.5 8.8,16.5 L6.4,16.5 Z" id="Path-26"></path>
                <path d="M14.4,16.5 C14.1238576,16.5 13.9,16.2761424 13.9,16 C13.9,15.7238576 14.1238576,15.5 14.4,15.5 L16.8,15.5 C17.0761424,15.5 17.3,15.7238576 17.3,16 C17.3,16.2761424 17.0761424,16.5 16.8,16.5 L14.4,16.5 Z" id="Path-26"></path>
            </g>
        </g>
    </g>
</svg>