<?xml version="1.0" encoding="UTF-8" standalone="no"?>
<svg width="63px" height="63px" viewBox="0 0 63 63" version="1.1" xmlns="http://www.w3.org/2000/svg" xmlns:xlink="http://www.w3.org/1999/xlink">
    <!-- Generator: Sketch 50.2 (55047) - http://www.bohemiancoding.com/sketch -->
    <title>Group 9@3x</title>
    <desc>Created with Sketch.</desc>
    <defs></defs>
    <g id="Customer-Flow" stroke="none" stroke-width="1" fill="none" fill-rule="evenodd">
        <g id="Group-9" transform="translate(1.000000, 1.000000)">
            <circle id="Oval-5" stroke="#222222" fill="#FFFFFF" cx="30.5" cy="30.5" r="30.5"></circle>
            <g id="Group-7" transform="translate(21.000000, 19.000000)" stroke-width="2">
                <circle id="Oval-4" stroke="#222222" cx="9" cy="9" r="9"></circle>
                <path d="M14,9 C14,6.23857625 11.7614237,4 9,4 C6.23857625,4 4,6.23857625 4,9 C4,11.7614237 6.23857625,14 9,14" id="Oval-4" stroke="#222222"></path>
                <path d="M18.9912098,16.2737487 L19.7458596,17.4684114 C20.6252276,18.8605114 20.2182108,20.7012174 18.8338819,21.5927689 L16.8541942,22.8677502 C15.4623627,23.7641336 13.6074963,23.3636327 12.7095109,21.9728342 L11.8979406,20.7158752 L11.8970219,20.7167213 C11.3431327,21.2268678 10.6176484,21.5100571 9.86462602,21.5100571 C8.20777177,21.5100571 6.86462602,20.1669113 6.86462602,18.5100571 L6.86462602,10.3126937 C6.86462602,9.90865203 6.94624255,9.5087736 7.10457906,9.13704891 C7.75386977,7.61271706 9.51593901,6.90335607 11.0402709,7.55264678 L18.7837267,10.8509797 C19.5969669,11.1973802 20.2160489,11.8847993 20.4757175,12.7297402 C20.9082924,14.1373041 20.2539581,15.6196685 18.9912098,16.2737487 Z M10.864626,11.8255828 L10.864626,16.2295126 L12.6818974,14.5557577 L15.5281316,18.964001 L15.834675,18.7665774 L12.8423289,14.0294877 L14.6990739,13.4588698 L10.864626,11.8255828 Z" id="Path-5" stroke="#FFFFFF" fill="#222222" fill-rule="nonzero"></path>
            </g>
        </g>
    </g>
</svg>