<?xml version="1.0" encoding="UTF-8"?>
<svg width="25px" height="21px" viewBox="0 0 25 21" version="1.1" xmlns="http://www.w3.org/2000/svg" xmlns:xlink="http://www.w3.org/1999/xlink">
    <!-- Generator: sketchtool 49.3 (51167) - http://www.bohemiancoding.com/sketch -->
    <title>9C919D35-0EAB-4EF3-8B8F-559FFA1D4FD3</title>
    <desc>Created with sketchtool.</desc>
    <defs></defs>
    <g id="Customer-Flow" stroke="none" stroke-width="1" fill="none" fill-rule="evenodd">
        <g id="04-Success" transform="translate(-663.000000, -533.000000)" fill="#F79A1D">
            <g id="Group-2" transform="translate(663.000000, 533.000000)">
                <g id="Page-1">
                    <path d="M20.1340177,20.1612903 L14.3972857,20.1612903 C14.3932145,20.0542595 14.3856735,19.9472287 14.3856272,19.8401483 C14.384887,18.0330181 14.3851183,16.2258384 14.3851183,14.4186586 L14.3851183,14.1280048 L10.6158078,14.1280048 L10.6158078,14.4433962 C10.6158078,16.0195103 10.6165018,17.5956741 10.6152527,19.1717883 C10.6150213,19.5016058 10.6077116,19.8314728 10.6036404,20.1612903 L4.86690843,20.1612903 C4.20612019,19.905041 4.03563747,19.6405128 4.0355912,18.8713683 C4.0355912,16.5012729 4.03730297,14.1311775 4.0322602,11.7610822 C4.03189008,11.5794917 4.07968076,11.4594724 4.21356868,11.341684 C6.3752063,9.43971826 8.53207873,7.53155575 10.6902465,5.62502919 C11.28955,5.09557618 11.8894549,4.56691637 12.4954203,4.03225806 C12.5739765,4.09754735 12.6413369,4.15049265 12.7057363,4.20735432 C15.4050537,6.59162794 18.1032146,8.97743836 20.8058168,11.357399 C20.9366975,11.4726592 20.967972,11.5941161 20.9677407,11.7614292 C20.9641783,14.1315246 20.9653349,16.5016199 20.9653349,18.8717153 C20.9652887,19.6405624 20.7947597,19.905041 20.1340177,20.1612903" id="Fill-1"></path>
                    <path d="M25,10.2806553 L25,10.5830275 C24.686377,10.9761618 24.3736816,11.3701024 24.0588379,11.762128 C23.7214355,12.1822741 23.482666,12.2015756 23.0735352,11.8494631 C19.6243652,8.88097431 16.1749512,5.91283826 12.7254395,2.944803 C12.6521484,2.88170799 12.5768066,2.82118316 12.4979492,2.75576997 C12.3945801,2.84340751 12.3065918,2.91708554 12.2195312,2.99197306 C8.77651367,5.95496879 5.33364258,8.9181157 1.89047852,11.8809098 C1.53144531,12.1898838 1.27041016,12.168113 0.972998047,11.800378 C0.646337891,11.3966103 0.324121094,10.9889622 0,10.5830275 L0,10.2806553 C0.102099609,10.1538101 0.187988281,10.0070084 0.30859375,9.90309318 C3.8230957,6.87528902 7.34272461,3.85378427 10.856543,0.825123378 C11.3033203,0.440001967 11.7441895,0.0622886762 12.3535156,0 L12.6464844,0 C13.194043,0.0687896788 13.620752,0.36738224 14.0305664,0.72846506 C15.1001465,1.67080807 16.1852539,2.59455518 17.2648926,3.5248033 C17.3167969,3.56950399 17.3759766,3.6052847 17.4657227,3.6695388 L17.4657227,3.37916068 C17.4657715,2.49799765 17.4646484,1.61683463 17.4662109,0.735671598 C17.4671875,0.223604253 17.6272949,0.0585090235 18.1223633,0.0577026976 C18.9923828,0.0563420226 19.8624023,0.056946767 20.7324707,0.0574507207 C21.280957,0.0577530929 21.4337891,0.213172411 21.4338867,0.771200333 C21.4342285,2.80203292 21.436377,4.83291589 21.4299805,6.86374848 C21.4293945,7.04184571 21.4839844,7.15458015 21.6146973,7.26560115 C22.6315918,8.12927698 23.6449219,8.9974884 24.653418,9.87164647 C24.7862305,9.9867495 24.8853027,10.1432775 25,10.2806553" id="Fill-3"></path>
                </g>
            </g>
        </g>
    </g>
</svg>