<?xml version="1.0" encoding="UTF-8"?>
<svg width="117px" height="32px" viewBox="0 0 117 32" version="1.1" xmlns="http://www.w3.org/2000/svg" xmlns:xlink="http://www.w3.org/1999/xlink">
    <!-- Generator: Sketch 46.1 (44463) - http://www.bohemiancoding.com/sketch -->
    <title>logo</title>
    <desc>Created with Sketch.</desc>
    <defs></defs>
    <g id="Admin-Flow---Dashboard" stroke="none" stroke-width="1" fill="none" fill-rule="evenodd">
        <g id="01-Rewards-&amp;-Recognition" transform="translate(-43.000000, -21.000000)">
            <g id="Group-2" transform="translate(43.000000, 21.000000)">
                <g id="logo">
                    <g id="Page-1">
                        <path d="M30.5235278,18.1726097 C29.6236601,19.0469881 28.4061719,19.3003935 27.8992866,18.7908151 C27.3911969,18.2772584 27.6515219,17.0131719 28.5431307,16.1417341 C29.438869,15.2742746 30.6345057,14.9783178 31.1468969,15.4917016 C31.6616969,16.0038746 31.4110072,17.3051503 30.5235278,18.1726097" id="Fill-1" fill="#FBD10A"></path>
                        <path d="M34.1598706,18.0514941 C33.5230809,18.7591265 32.6519471,19.0303481 32.2286824,18.6710832 C31.8136765,18.3074941 31.9726588,17.3644454 32.6122015,16.6526616 C33.2560456,15.9476238 34.143525,15.61984 34.5624882,15.9874076 C34.9735368,16.3509968 34.7968324,17.3367697 34.1598706,18.0514941" id="Fill-3" fill="#FBD700"></path>
                        <path d="M19.0763338,13.551827 C17.8655559,13.2887351 16.2029515,13.7128649 15.0634059,14.8432432 C13.8705221,16.0371027 12.9952588,17.6618378 13.4677324,19.0001297 C13.6580294,19.5494919 14.4374559,20.0741189 15.0634059,20.0988541 C16.2810662,20.1510919 17.6860985,19.5920432 18.6477353,18.6986378 C19.6818088,17.7484973 20.2268912,16.3510486 20.2487426,15.3692541 C20.2459897,15.1269189 20.2459897,15.0210595 20.1911029,14.7512216 C20.0844265,14.1811027 19.5269559,13.6440216 19.0763338,13.551827" id="Fill-5" fill="#F7A81B"></path>
                        <path d="M25.6121259,18.3074941 C24.4151126,19.460013 22.6468641,19.8882941 21.9648229,19.2026292 C21.2814053,18.5209427 21.6881524,16.8162941 22.8796597,15.6528778 C24.0658332,14.4879049 25.7354921,14.2127049 26.4189097,14.8983697 C27.1009509,15.5731373 26.8022568,17.1413103 25.6121259,18.3074941" id="Fill-7" fill="#F7BA16"></path>
                        <path d="M23.5015491,15.2192346 C23.9191359,14.8736346 24.3658006,14.6354508 24.7574065,14.6010292 C24.3177962,14.7676022 23.8878212,14.9699805 23.5015491,15.2192346" id="Fill-9" fill="#F6A41B"></path>
                        <path d="M33.4600385,12.6553773 C32.7246591,13.6700368 31.5357326,14.1052368 30.9428179,13.6935611 C30.355065,13.2791178 30.3523121,12.0041341 31.0825297,10.9853232 C31.8259959,9.97585297 33.0243856,9.46385297 33.6052562,9.87414486 C34.2009238,10.2941232 34.2009238,11.6490205 33.4600385,12.6553773" id="Fill-11" fill="#FBD10A"></path>
                        <path d="M36.3060635,13.7348497 C35.7129768,14.5500714 34.8378856,14.9354551 34.3679929,14.6009254 C33.8874326,14.2677795 33.9572885,13.2790659 34.5529562,12.4586551 C35.1391606,11.6489686 36.0388562,11.2026984 36.5101253,11.5429362 C36.9812224,11.8691632 36.9046562,12.9281038 36.3060635,13.7348497" id="Fill-13" fill="#FBD700"></path>
                        <path d="M23.8947379,9.45267892 C22.4071174,11.2483114 20.1390379,11.9806789 19.1545174,11.0526789 C18.0175526,9.95395459 17.9683438,8.20398703 19.6378306,6.09164108 C21.4348129,3.81843027 23.4248453,3.73592216 24.4754365,4.58262486 C25.5231026,5.42794378 25.3780571,7.65445189 23.8947379,9.45267892" id="Fill-15" fill="#F8B417"></path>
                        <path d="M29.4457341,11.2454054 C28.3567738,13.1001946 26.6709415,13.1318486 25.9107856,12.5328432 C25.1655988,11.92 25.3848018,10.1631135 26.4503621,8.88138378 C27.5159224,7.59256216 29.2115621,7.08454054 29.9004856,7.76467027 C30.4755062,8.33876757 30.3017268,9.79848649 29.4457341,11.2454054" id="Fill-17" fill="#F8C013"></path>
                        <path d="M17.5314865,0.308843243 C13.6498394,-1.3324973 9.74221147,3.9603027 10.0560468,6.93301622 C10.2998541,9.23113514 11.7516865,10.1563676 13.7814644,9.83290811 C13.8169085,9.81907027 13.8485674,9.81907027 13.8731718,9.81076757 C16.0166806,9.52294054 17.8148674,7.76467027 18.6324909,6.21708108 C18.9174203,5.67584865 19.1104703,5.02875676 19.20906,4.35692973 C19.2133615,4.34862703 19.20906,4.34724324 19.20906,4.34724324 C19.23246,4.08276757 19.2570644,3.81725405 19.2570644,3.55139459 L19.2570644,3.55001081 C19.2570644,2.16207568 18.7517276,0.832086486 17.5314865,0.308843243" id="Fill-21" fill="#F6A01C"></path>
                        <path d="M9.38500015,12.1639092 C8.49872515,12.3126659 7.64978691,12.6816173 6.88412515,13.1950011 C5.63497809,13.9344605 4.60090456,14.9148714 3.9981825,16.0921254 C3.25574868,17.5378335 3.34780015,18.8391092 3.98458985,19.7437578 C4.27227221,20.2296389 4.67351338,20.5271524 5.06374279,20.696493 C5.27726779,20.7845362 5.50490162,20.8549362 5.73339574,20.8974876 L5.74027809,20.8974876 C6.4142325,21.0600822 7.17851779,21.0462443 8.02349868,20.8231092 C10.490134,20.1511092 13.2800678,17.458093 13.2650987,14.9148714 C13.251334,12.4240605 11.4297472,11.7273254 9.38500015,12.1639092" id="Fill-24" fill="#F6981D"></path>
                        <path d="M33.450386,21.9756454 C32.7710978,22.6364022 31.8877478,22.8609211 31.490464,22.4686184 C31.1057404,22.0773535 31.317889,21.1536778 31.9973493,20.4801211 C32.6835199,19.8179805 33.5928507,19.5495265 33.988586,19.9420022 C34.3817404,20.3317103 34.140686,21.3050292 33.450386,21.9756454" id="Fill-26" fill="#FBD700"></path>
                        <path d="M29.1991566,23.2422919 C28.2678022,24.0602811 27.111911,24.2804757 26.6242963,23.7297297 C26.1516507,23.1900541 26.5255346,22.0885622 27.4747831,21.2747243 C28.4157728,20.4665946 29.527961,20.2545297 30.0140272,20.7983568 C30.4823713,21.3395892 30.153911,22.4298378 29.1991566,23.2422919" id="Fill-28" fill="#FBD10A"></path>
                        <path d="M23.5248115,24.9854443 C22.2593188,26.0705038 20.7238659,26.3583308 20.0815703,25.634093 C19.4378982,24.904147 19.9487409,23.4392389 21.2047703,22.3610984 C22.4688865,21.2746551 23.9479041,20.9925362 24.5903718,21.7193686 C25.2285379,22.4422227 24.7835938,23.9005578 23.5248115,24.9854443" id="Fill-30" fill="#F8BC15"></path>
                        <path d="M16.5371069,22.5772454 C14.0388128,21.8668454 10.0630496,25.0708238 10.6408231,27.5877535 C10.775201,28.1551049 11.553079,28.6603589 12.1721466,28.7333535 C14.674226,28.9936778 17.4904849,26.3072346 17.6424128,24.4017643 C17.6286481,24.180013 17.6231422,23.9582616 17.6123025,23.7420454 C17.5369407,23.1693319 16.9834275,22.7026508 16.5371069,22.5772454" id="Fill-32" fill="#F8A71A"></path>
                        <path d="M9.80673353,25.3765708 C9.35060559,23.4707546 7.05654529,23.6210681 5.51575853,24.0780627 C4.94331882,24.2129816 4.36399676,24.4291978 3.82717324,24.7253276 L3.814785,24.7253276 C3.02159382,25.1176303 2.36570559,25.5900195 1.76298353,26.1722465 C1.030185,26.8842032 -0.224295882,28.4812627 0.0346526471,30.0262573 C0.301687941,31.65376 2.32320706,32.12736 4.15442912,31.6854141 C6.35402912,31.1732411 10.5107982,28.3437492 9.80673353,25.3765708" id="Fill-34" fill="#F6991D"></path>
                        <path d="M48.2476857,12.0647438 C47.9257637,11.0995546 47.9532931,9.71992216 46.3426504,9.75157622 C44.7621181,9.79274378 44.0224372,10.8380195 44.0224372,12.0963978 C44.0224372,14.1245059 49.1296593,14.5197492 49.5133504,18.6380627 C49.7475225,21.0958357 47.3643357,25.17696 42.5733578,25.2208951 C40.6327063,25.2236627 38.2125269,24.3506681 38.1741578,20.2337384 L41.6201519,19.4889168 C41.6571446,20.5160303 41.5749004,22.3651114 43.5417049,22.3651114 C45.0415416,22.3651114 45.8263019,20.94016 45.9453666,19.8220627 C46.2261666,17.24736 40.5339446,16.5066897 40.5626784,13.2214141 C40.6012196,10.1480303 42.5733578,6.97017081 47.2958563,7.01012757 C51.9772328,7.04731676 51.3457769,11.2538465 51.3457769,11.2538465 L48.2476857,12.0647438 Z" id="Fill-36" fill="#FEFEFE"></path>
                        <path d="M53.0537532,11.7012411 L55.8147812,11.7012411 L55.4176694,13.3121384 L55.4629209,13.3121384 C55.8602047,12.8743438 56.3956518,12.4585168 57.0776929,12.0717492 C57.7556047,11.6915546 58.43214,11.4768951 59.1322474,11.4589059 C60.2948488,11.4602897 61.0152591,11.9119222 61.3192871,12.821933 C61.6138518,13.7143005 61.5508782,15.0276843 61.1016326,16.744787 L60.2948488,19.9792086 C59.87709,21.6878357 59.2908856,23.0109059 58.5417415,23.9100195 C57.7953503,24.8051546 56.8393915,25.2595546 55.6681871,25.2650897 C55.2793341,25.2704519 54.8848032,25.1616519 54.4904444,24.9331546 C54.0878268,24.7074249 53.602965,24.3315546 53.0331062,23.7944735 L51.1745268,31.2020411 L48.1628091,31.2020411 L53.0537532,11.7012411 Z M55.30824,14.7125276 L53.4797709,22.0100843 C53.8878944,22.6516411 54.4123297,22.9752735 55.0575503,22.9614357 C55.4629209,22.9903222 55.8641621,22.8003978 56.2504341,22.3610465 C56.6408356,21.928787 57.0050841,21.0696303 57.3350929,19.7752735 L58.0515459,16.9388627 C58.3622841,15.6529816 58.4254297,14.7922681 58.259565,14.3627762 C58.0857856,13.9222141 57.7843385,13.7226032 57.3569444,13.7610032 C56.7160253,13.7459546 56.0422429,14.0652627 55.30824,14.7125276 L55.30824,14.7125276 Z" id="Fill-38" fill="#FEFEFE"></path>
                        <path d="M79.1654347,16.2903351 L76.1784935,16.2903351 L76.32612,15.7037838 C76.4494862,15.1904 76.3782538,14.8006919 76.1234347,14.5336216 C75.8823803,14.2677622 75.4811391,14.1328432 74.9525744,14.1328432 C74.4142024,14.1328432 73.9525685,14.2677622 73.5761038,14.5336216 C73.1857024,14.8006919 72.9296788,15.1904 72.7953009,15.7037838 L71.4707921,20.9868973 C71.3436406,21.4992432 71.4133244,21.8970811 71.6614332,22.1629405 C71.9160803,22.4217081 72.3104391,22.5538595 72.8458862,22.5538595 C73.3761715,22.5538595 73.8417626,22.4217081 74.2223568,22.1629405 C74.6072524,21.8970811 74.8662009,21.4992432 74.9990303,20.9868973 L75.20877,20.1607784 L78.2203156,20.1607784 L78.2080994,20.2090378 C77.750595,21.9562378 77.0150435,23.2381405 75.9864759,24.0505946 C74.9525744,24.8614919 73.6855332,25.2595027 72.1721038,25.2430703 C70.6531685,25.2595027 69.5755641,24.8614919 68.9535715,24.0505946 C68.3221156,23.2381405 68.2276553,21.9562378 68.6590068,20.2090378 L69.5848553,16.4832 C70.0342729,14.7372108 70.7792876,13.4471784 71.8064788,12.643027 C72.8433053,11.8319568 74.1168847,11.4285838 75.6263568,11.4424216 C77.1096759,11.4285838 78.160095,11.8169081 78.7929274,12.5949405 C79.4283406,13.3783351 79.5446524,14.6022919 79.1654347,16.2903351" id="Fill-40" fill="#FEFEFE"></path>
                        <path d="M83.9699709,16.6016692 L87.5064679,16.6016692 L87.6898826,15.8663611 C87.8376812,15.2742746 87.8228841,14.8074205 87.6201988,14.459053 C87.4173415,14.1328259 87.0131753,13.9565665 86.3996135,13.9524151 C85.7970635,13.9565665 85.3054915,14.1328259 84.9341885,14.459053 C84.5603047,14.8074205 84.3070341,15.2742746 84.1576871,15.8663611 L83.9699709,16.6016692 Z M89.8908591,19.0964584 L83.3453974,19.0964584 L82.9045826,20.8574962 C82.7471488,21.5198097 82.800315,22.0005016 83.0565106,22.3047611 C83.3016944,22.6185341 83.6879665,22.7645232 84.1972606,22.7645232 C84.8300929,22.7494746 85.3204606,22.5771935 85.6862576,22.2262314 C86.0573885,21.8667935 86.2984429,21.4371286 86.4340253,20.897453 L89.4402371,20.897453 C89.0211018,22.2909232 88.3225429,23.3566097 87.3270106,24.1071395 C86.3393929,24.8739286 85.087665,25.243053 83.5714826,25.2650205 C82.1196503,25.243053 81.0759415,24.8313773 80.4253871,23.9940151 C79.7762091,23.1637449 79.6270341,22.0100151 79.9733885,20.5340368 L81.0649297,16.1844584 C81.4541268,14.7124584 82.1855488,13.5601124 83.2509371,12.7284584 C84.3123679,11.8966314 85.5654724,11.469907 87.0283165,11.4590097 C88.4417797,11.4726746 89.4827356,11.8871178 90.1468826,12.705107 C90.8125782,13.5187719 90.996165,14.6010638 90.6728665,15.9874422 L89.8908591,19.0964584 Z" id="Fill-42" fill="#FEFEFE"></path>
                        <path d="M101.968098,16.6016692 L105.498917,16.6016692 L105.68388,15.8663611 C105.834604,15.2742746 105.808451,14.8074205 105.60026,14.459053 C105.398951,14.1328259 104.999086,13.9565665 104.397913,13.9524151 C103.791061,13.9565665 103.29536,14.1328259 102.921304,14.459053 C102.546044,14.8074205 102.292773,15.2742746 102.140845,15.8663611 L101.968098,16.6016692 Z M107.878147,19.0964584 L101.340772,19.0964584 L100.897032,20.8574962 C100.747685,21.5198097 100.792936,22.0005016 101.04225,22.3047611 C101.287433,22.6185341 101.67078,22.7645232 102.185925,22.7645232 C102.81738,22.7494746 103.308952,22.5771935 103.684385,22.2262314 C104.044332,21.8667935 104.282805,21.4371286 104.412882,20.897453 L107.423395,20.897453 C107.009766,22.2909232 106.305701,23.3566097 105.316879,24.1071395 C104.332014,24.8739286 103.084244,25.243053 101.56548,25.2650205 C100.110895,25.243053 99.0659819,24.8313773 98.4154275,23.9940151 C97.7634966,23.1637449 97.6129451,22.0100151 97.960676,20.5340368 L99.0522172,16.1844584 C99.4481246,14.7124584 100.173869,13.5601124 101.236676,12.7284584 C102.301032,11.8966314 103.559642,11.469907 105.01698,11.4590097 C106.438358,11.4726746 107.475357,11.8871178 108.138127,12.705107 C108.8052,13.5187719 108.977775,14.6010638 108.658605,15.9874422 L107.878147,19.0964584 Z" id="Fill-44" fill="#FEFEFE"></path>
                        <path d="M111.292551,14.7826508 L109.726988,14.7826508 L110.351561,12.2863049 L111.919705,12.2863049 L113.062004,7.66550486 L116.072345,7.66550486 L114.931423,12.2863049 L116.865536,12.2863049 L116.240963,14.7826508 L114.297386,14.7826508 L112.600542,21.5900022 C112.521051,21.9233211 112.585401,22.166867 112.799098,22.3280778 C112.997654,22.49344 113.30323,22.5773319 113.719268,22.5773319 C113.930385,22.5773319 114.12636,22.5621103 114.32199,22.5442941 L113.674189,25.1451157 C113.076973,25.2291805 112.496446,25.2705211 111.919705,25.2649859 C110.933636,25.2705211 110.178814,25.0709103 109.710642,24.663213 C109.242298,24.2446184 109.110673,23.5658724 109.335382,22.6184995 L111.292551,14.7826508 Z" id="Fill-46" fill="#FEFEFE"></path>
                        <path d="M92.4260599,20.9387416 L94.5666437,12.3883416 L95.7418054,7.67517405 L98.7564481,7.67517405 L97.5702746,12.3883416 L93.9436187,26.5634768 C93.4819849,28.3009903 92.7438525,29.5815092 91.7194143,30.3773578 C90.6892981,31.1924065 89.4102128,31.5876497 87.9050422,31.5822876 C86.380601,31.5876497 85.3081584,31.1924065 84.6904672,30.3773578 C84.0619363,29.5664605 83.9604216,28.2970119 84.3793849,26.5385686 L87.4200084,26.5221362 L87.1982246,27.3193686 C87.0874187,27.8398443 87.1474672,28.2224605 87.3940275,28.48832 C87.6460937,28.7512389 88.042001,28.8930768 88.5760716,28.8930768 C89.1103143,28.8930768 89.5676466,28.7512389 89.9552951,28.48832 C90.3455246,28.2224605 90.5948378,27.8398443 90.735926,27.3193686 L91.0057143,26.2479741 L92.4260599,20.9387416 Z" id="Fill-49" fill="#FEFEFE"></path>
                        <polygon id="Fill-51" fill="#FEFEFE" points="64.9050618 11.7012411 67.9071441 11.7012411 64.5817632 25.0211978 61.5727985 25.0211978"></polygon>
                        <polygon id="Fill-53" fill="#FEFEFE" points="68.2523113 10.4620454 65.2392172 10.4620454 65.9322701 7.66559135 68.9343525 7.66559135"></polygon>
                    </g>
                </g>
            </g>
        </g>
    </g>
</svg>